<svg xmlns="http://www.w3.org/2000/svg" width="224.88" viewBox="0 0 224.88 225" height="225" version="1.0"><defs><clipPath id="a"><path d="M 0 0.0585938 L 224.761719 0.0585938 L 224.761719 224.9375 L 0 224.9375 Z M 0 0.0585938"/></clipPath><clipPath id="b"><path d="M 0 33.898438 L 157.414062 33.898438 L 157.414062 191.316406 L 0 191.316406 Z M 0 33.898438"/></clipPath></defs><g clip-path="url(#a)"><path fill="#FFF" d="M 0 0.0585938 L 224.878906 0.0585938 L 224.878906 232.4375 L 0 232.4375 Z M 0 0.0585938"/><path fill="#FFF" d="M 0 0.0585938 L 224.878906 0.0585938 L 224.878906 224.941406 L 0 224.941406 Z M 0 0.0585938"/><path fill="#004AAD" d="M 0 0.0585938 L 224.878906 0.0585938 L 224.878906 224.941406 L 0 224.941406 Z M 0 0.0585938"/></g><g clip-path="url(#b)"><path fill="#004AAD" d="M 157.371094 112.574219 C 157.371094 156.039062 122.140625 191.269531 78.675781 191.269531 C 35.214844 191.269531 -0.0195312 156.039062 -0.0195312 112.574219 C -0.0195312 69.113281 35.214844 33.878906 78.675781 33.878906 C 122.140625 33.878906 157.371094 69.113281 157.371094 112.574219"/></g><path fill="#51C7F4" d="M 154.328125 90.824219 C 154.328125 90.824219 154.027344 91.429688 153.464844 92.554688 C 152.835938 93.644531 151.949219 95.285156 150.492188 97.152344 C 147.644531 100.914062 142.773438 105.789062 135.816406 110.042969 C 132.347656 112.175781 128.421875 114.203125 124.109375 115.980469 C 119.800781 117.746094 115.132812 119.332031 110.203125 120.582031 C 105.273438 121.808594 100.109375 122.832031 94.8125 123.457031 C 89.515625 124.082031 84.097656 124.410156 78.675781 124.4375 C 73.285156 124.410156 67.828125 124.082031 62.542969 123.457031 C 57.246094 122.832031 52.078125 121.816406 47.148438 120.582031 C 42.222656 119.339844 37.554688 117.753906 33.242188 115.988281 C 28.929688 114.203125 25 112.175781 21.539062 110.046875 C 14.582031 105.792969 9.703125 100.914062 6.863281 97.152344 C 5.402344 95.285156 4.511719 93.652344 3.890625 92.558594 C 3.324219 91.429688 3.023438 90.824219 3.023438 90.824219 C 3.023438 90.824219 3.367188 91.40625 4.007812 92.492188 C 4.695312 93.539062 5.71875 95.074219 7.242188 96.847656 C 8.753906 98.628906 10.75 100.660156 13.265625 102.703125 C 15.785156 104.75 18.796875 106.839844 22.273438 108.808594 C 25.75 110.761719 29.667969 112.601562 33.933594 114.246094 C 38.210938 115.863281 42.824219 117.273438 47.675781 118.441406 C 52.535156 119.589844 57.625 120.441406 62.824219 121.046875 C 68.046875 121.636719 73.328125 121.929688 78.675781 121.929688 C 89.320312 121.945312 99.964844 120.722656 109.679688 118.441406 C 114.527344 117.28125 119.144531 115.871094 123.425781 114.253906 C 127.6875 112.605469 131.605469 110.765625 135.085938 108.8125 C 138.554688 106.839844 141.574219 104.757812 144.089844 102.710938 C 146.609375 100.660156 148.605469 98.628906 150.109375 96.847656 C 151.636719 95.074219 152.65625 93.539062 153.347656 92.492188 C 153.984375 91.40625 154.328125 90.824219 154.328125 90.824219"/><path fill="#51C7F4" d="M 141.53125 65.214844 C 141.53125 65.214844 141.117188 65.53125 140.351562 66.128906 C 139.972656 66.429688 139.492188 66.796875 138.933594 67.234375 C 138.367188 67.660156 137.695312 68.109375 136.9375 68.621094 C 136.195312 69.148438 135.335938 69.6875 134.394531 70.25 C 133.925781 70.535156 133.433594 70.835938 132.925781 71.148438 C 132.414062 71.445312 131.871094 71.726562 131.3125 72.039062 C 130.753906 72.34375 130.183594 72.65625 129.589844 72.980469 C 128.984375 73.28125 128.359375 73.59375 127.71875 73.90625 C 126.445312 74.558594 125.066406 75.144531 123.617188 75.757812 C 122.1875 76.40625 120.640625 76.9375 119.070312 77.554688 C 117.480469 78.128906 115.8125 78.664062 114.097656 79.203125 C 112.367188 79.6875 110.601562 80.242188 108.761719 80.667969 C 107.84375 80.894531 106.921875 81.136719 105.980469 81.34375 C 105.03125 81.527344 104.082031 81.722656 103.121094 81.914062 C 101.199219 82.320312 99.222656 82.601562 97.230469 82.933594 C 95.230469 83.183594 93.207031 83.507812 91.148438 83.648438 C 87.050781 84.082031 82.863281 84.191406 78.675781 84.269531 C 76.554688 84.207031 74.535156 84.230469 72.425781 84.09375 C 71.375 84.039062 70.335938 83.980469 69.292969 83.917969 C 68.261719 83.832031 67.226562 83.742188 66.203125 83.648438 C 64.144531 83.507812 62.125 83.1875 60.121094 82.9375 C 58.132812 82.601562 56.152344 82.320312 54.230469 81.921875 C 53.269531 81.730469 52.320312 81.527344 51.375 81.34375 C 50.433594 81.136719 49.507812 80.894531 48.589844 80.667969 C 46.75 80.242188 44.984375 79.6875 43.257812 79.203125 C 41.539062 78.664062 39.875 78.128906 38.285156 77.5625 C 36.707031 76.941406 35.164062 76.414062 33.734375 75.765625 C 32.289062 75.152344 30.910156 74.566406 29.636719 73.910156 C 28.992188 73.59375 28.371094 73.285156 27.765625 72.988281 C 27.171875 72.664062 26.589844 72.34375 26.035156 72.039062 C 25.480469 71.734375 24.9375 71.445312 24.421875 71.148438 C 23.921875 70.835938 23.429688 70.542969 22.960938 70.253906 C 22.019531 69.6875 21.15625 69.148438 20.414062 68.625 C 19.667969 68.109375 18.984375 67.660156 18.417969 67.242188 C 17.855469 66.804688 17.390625 66.429688 17 66.128906 C 16.234375 65.53125 15.824219 65.214844 15.824219 65.214844 C 15.824219 65.214844 16.265625 65.496094 17.082031 66.023438 C 17.488281 66.285156 17.992188 66.609375 18.585938 66.992188 C 19.191406 67.347656 19.890625 67.753906 20.675781 68.207031 C 21.445312 68.683594 22.332031 69.148438 23.304688 69.648438 C 23.785156 69.898438 24.289062 70.160156 24.808594 70.4375 C 25.332031 70.699219 25.894531 70.941406 26.460938 71.210938 C 27.027344 71.472656 27.621094 71.746094 28.226562 72.027344 C 28.84375 72.28125 29.480469 72.542969 30.128906 72.8125 C 30.785156 73.070312 31.441406 73.375 32.132812 73.636719 C 32.824219 73.890625 33.535156 74.152344 34.257812 74.421875 C 37.15625 75.496094 40.363281 76.46875 43.769531 77.40625 C 45.484375 77.824219 47.238281 78.308594 49.058594 78.660156 C 49.96875 78.851562 50.886719 79.046875 51.8125 79.238281 C 52.746094 79.40625 53.683594 79.574219 54.628906 79.75 C 56.527344 80.105469 58.472656 80.335938 60.441406 80.625 C 61.425781 80.730469 62.417969 80.84375 63.410156 80.949219 C 64.40625 81.078125 65.414062 81.160156 66.421875 81.242188 C 67.425781 81.324219 68.445312 81.402344 69.457031 81.484375 C 70.472656 81.527344 71.484375 81.578125 72.507812 81.628906 C 74.519531 81.753906 76.65625 81.710938 78.675781 81.761719 C 82.789062 81.714844 86.90625 81.636719 90.9375 81.242188 C 92.953125 81.105469 94.941406 80.824219 96.921875 80.625 C 98.878906 80.34375 100.824219 80.105469 102.722656 79.75 C 103.671875 79.582031 104.605469 79.414062 105.542969 79.246094 C 106.464844 79.046875 107.382812 78.851562 108.292969 78.664062 C 110.117188 78.308594 111.871094 77.828125 113.585938 77.40625 C 117 76.46875 120.199219 75.5 123.09375 74.429688 C 123.816406 74.152344 124.527344 73.890625 125.222656 73.636719 C 125.914062 73.375 126.570312 73.074219 127.222656 72.8125 C 127.878906 72.542969 128.515625 72.28125 129.128906 72.027344 C 129.734375 71.746094 130.324219 71.476562 130.894531 71.210938 C 131.460938 70.945312 132.023438 70.699219 132.546875 70.4375 C 133.070312 70.160156 133.570312 69.90625 134.054688 69.648438 C 135.023438 69.148438 135.910156 68.683594 136.675781 68.214844 C 137.460938 67.757812 138.15625 67.347656 138.765625 66.992188 C 139.359375 66.609375 139.863281 66.285156 140.269531 66.023438 C 141.09375 65.492188 141.53125 65.214844 141.53125 65.214844"/><path fill="#51C7F4" d="M 154.328125 131.628906 C 154.328125 131.628906 154.027344 132.230469 153.464844 133.359375 C 152.835938 134.449219 151.949219 136.089844 150.492188 137.957031 C 147.644531 141.710938 142.773438 146.589844 135.816406 150.847656 C 132.347656 152.972656 128.421875 155.007812 124.109375 156.785156 C 119.800781 158.550781 115.132812 160.136719 110.203125 161.378906 C 105.273438 162.613281 100.109375 163.632812 94.8125 164.253906 C 89.515625 164.878906 84.097656 165.210938 78.675781 165.234375 C 73.285156 165.210938 67.828125 164.878906 62.542969 164.253906 C 57.246094 163.636719 52.078125 162.613281 47.148438 161.386719 C 42.222656 160.136719 37.554688 158.550781 33.242188 156.785156 C 28.929688 155.007812 25 152.980469 21.539062 150.847656 C 14.582031 146.589844 9.703125 141.710938 6.863281 137.957031 C 5.402344 136.089844 4.511719 134.449219 3.890625 133.359375 C 3.324219 132.230469 3.023438 131.628906 3.023438 131.628906 C 3.023438 131.628906 3.367188 132.210938 4.007812 133.289062 C 4.695312 134.335938 5.71875 135.878906 7.242188 137.652344 C 8.753906 139.429688 10.75 141.457031 13.265625 143.507812 C 15.785156 145.554688 18.796875 147.640625 22.273438 149.613281 C 25.75 151.5625 29.667969 153.40625 33.933594 155.050781 C 38.210938 156.667969 42.824219 158.078125 47.675781 159.238281 C 52.535156 160.386719 57.625 161.246094 62.824219 161.851562 C 68.046875 162.4375 73.328125 162.734375 78.675781 162.726562 C 89.320312 162.75 99.964844 161.527344 109.679688 159.238281 C 114.527344 158.078125 119.144531 156.667969 123.425781 155.050781 C 127.6875 153.40625 131.605469 151.570312 135.085938 149.613281 C 138.554688 147.644531 141.574219 145.554688 144.089844 143.507812 C 146.609375 141.457031 148.605469 139.429688 150.109375 137.652344 C 151.636719 135.878906 152.65625 134.339844 153.347656 133.289062 C 153.984375 132.210938 154.328125 131.628906 154.328125 131.628906"/><path fill="#51C7F4" d="M 88.820312 190.386719 C 88.820312 190.386719 89.550781 190.089844 90.929688 189.542969 C 92.304688 188.980469 94.289062 188.109375 96.777344 186.902344 C 99.261719 185.707031 102.199219 184.101562 105.425781 182.03125 C 108.636719 179.953125 112.125 177.382812 115.605469 174.226562 C 119.082031 171.074219 122.5625 167.34375 125.703125 162.996094 C 128.878906 158.671875 131.628906 153.699219 133.929688 148.332031 C 136.160156 142.9375 137.875 137.113281 138.949219 131.070312 C 140.039062 125.035156 140.546875 118.753906 140.53125 112.542969 C 140.496094 110.964844 140.507812 109.367188 140.4375 107.816406 C 140.339844 106.261719 140.320312 104.714844 140.152344 103.167969 C 140.019531 101.621094 139.882812 100.066406 139.664062 98.539062 C 139.492188 97.003906 139.230469 95.480469 138.964844 93.964844 C 137.914062 87.917969 136.203125 82.089844 134 76.6875 C 131.710938 71.316406 128.972656 66.335938 125.789062 62.019531 C 122.644531 57.675781 119.164062 53.953125 115.667969 50.820312 C 112.175781 47.679688 108.675781 45.128906 105.449219 43.070312 C 102.21875 41.011719 99.265625 39.417969 96.777344 38.230469 C 94.289062 37.039062 92.296875 36.167969 90.925781 35.609375 C 89.550781 35.058594 88.816406 34.765625 88.816406 34.765625 C 88.816406 34.765625 89.5625 35.015625 90.972656 35.480469 C 92.371094 35.96875 94.429688 36.6875 96.976562 37.785156 C 99.535156 38.871094 102.574219 40.339844 105.9375 42.269531 C 109.285156 44.207031 112.960938 46.632812 116.613281 49.734375 C 118.464844 51.25 120.265625 52.976562 122.089844 54.820312 C 123.863281 56.695312 125.644531 58.699219 127.292969 60.910156 C 130.664062 65.261719 133.621094 70.316406 136.027344 75.828125 C 137.183594 78.597656 138.292969 81.453125 139.152344 84.425781 C 139.632812 85.894531 139.972656 87.417969 140.390625 88.921875 C 140.707031 90.449219 141.09375 91.980469 141.351562 93.535156 C 141.625 95.085938 141.898438 96.648438 142.085938 98.21875 C 142.316406 99.792969 142.464844 101.371094 142.609375 102.960938 C 142.785156 104.539062 142.816406 106.148438 142.921875 107.753906 C 142.996094 109.351562 143.003906 110.914062 143.039062 112.5 C 143.023438 118.933594 142.472656 125.296875 141.332031 131.503906 C 141.058594 133.058594 140.6875 134.585938 140.351562 136.117188 C 139.933594 137.621094 139.589844 139.140625 139.105469 140.609375 C 138.238281 143.578125 137.105469 146.429688 135.953125 149.199219 C 133.53125 154.703125 130.5625 159.742188 127.199219 164.105469 C 123.886719 168.511719 120.199219 172.214844 116.550781 175.304688 C 112.910156 178.425781 109.253906 180.871094 105.910156 182.824219 C 102.5625 184.769531 99.527344 186.253906 96.976562 187.347656 C 94.4375 188.457031 92.371094 189.179688 90.972656 189.667969 C 89.570312 190.136719 88.820312 190.386719 88.820312 190.386719"/><path fill="#51C7F4" d="M 87.207031 190.386719 C 87.207031 190.386719 87.335938 190.277344 87.582031 190.078125 C 87.816406 189.875 88.199219 189.59375 88.640625 189.175781 C 89.546875 188.363281 90.78125 187.066406 92.179688 185.28125 C 93.570312 183.496094 95.074219 181.175781 96.527344 178.378906 C 97.988281 175.585938 99.410156 172.316406 100.734375 168.667969 C 102.035156 165.011719 103.226562 160.972656 104.296875 156.65625 C 105.355469 152.332031 106.21875 147.707031 106.960938 142.910156 C 107.707031 138.113281 108.21875 133.113281 108.59375 128.03125 C 108.972656 122.945312 109.15625 117.746094 109.144531 112.589844 C 109.148438 107.359375 108.96875 102.222656 108.59375 97.121094 C 108.207031 92.035156 107.703125 87.039062 106.960938 82.242188 C 106.210938 77.441406 105.347656 72.824219 104.289062 68.5 C 103.226562 64.175781 102.035156 60.140625 100.726562 56.484375 C 99.402344 52.835938 97.980469 49.570312 96.527344 46.769531 C 95.074219 43.976562 93.570312 41.65625 92.179688 39.871094 C 90.78125 38.089844 89.546875 36.789062 88.632812 35.976562 C 88.191406 35.554688 87.8125 35.28125 87.574219 35.070312 C 87.332031 34.871094 87.207031 34.765625 87.207031 34.765625 C 87.207031 34.765625 87.335938 34.863281 87.59375 35.042969 C 87.847656 35.234375 88.253906 35.484375 88.722656 35.871094 C 89.6875 36.628906 91.050781 37.820312 92.554688 39.558594 C 95.574219 43.019531 99.136719 48.648438 102.066406 55.972656 C 105.039062 63.277344 107.503906 72.183594 109.136719 81.882812 C 109.953125 86.738281 110.617188 91.785156 111.007812 96.941406 C 111.414062 102.070312 111.632812 107.359375 111.652344 112.5625 C 111.625 117.828125 111.414062 123.0625 111.007812 128.210938 C 110.617188 133.363281 109.953125 138.414062 109.136719 143.261719 C 107.503906 152.96875 105.03125 161.871094 102.066406 169.179688 C 99.136719 176.496094 95.574219 182.128906 92.554688 185.585938 C 91.054688 187.328125 89.6875 188.519531 88.722656 189.28125 C 88.253906 189.667969 87.847656 189.917969 87.597656 190.105469 L 87.207031 190.386719"/><path fill="#51C7F4" d="M 68.53125 190.386719 L 66.378906 189.667969 C 64.976562 189.179688 62.917969 188.457031 60.378906 187.347656 C 57.824219 186.253906 54.792969 184.769531 51.441406 182.824219 C 48.097656 180.871094 44.441406 178.425781 40.804688 175.304688 C 37.15625 172.214844 33.46875 168.511719 30.152344 164.105469 C 26.796875 159.742188 23.820312 154.703125 21.402344 149.199219 C 20.246094 146.429688 19.117188 143.578125 18.25 140.609375 C 17.761719 139.140625 17.421875 137.621094 17 136.117188 C 16.664062 134.585938 16.296875 133.058594 16.023438 131.503906 C 14.878906 125.296875 14.332031 118.933594 14.3125 112.5 C 14.351562 110.914062 14.355469 109.351562 14.425781 107.753906 C 14.539062 106.148438 14.570312 104.539062 14.742188 102.960938 C 14.886719 101.371094 15.035156 99.792969 15.265625 98.21875 C 15.453125 96.648438 15.730469 95.085938 16.003906 93.535156 C 16.257812 91.980469 16.644531 90.449219 16.964844 88.921875 C 17.382812 87.417969 17.71875 85.894531 18.199219 84.425781 C 19.0625 81.453125 20.171875 78.597656 21.324219 75.828125 C 23.734375 70.316406 26.691406 65.261719 30.0625 60.910156 C 31.707031 58.699219 33.492188 56.695312 35.269531 54.820312 C 37.085938 52.976562 38.890625 51.25 40.742188 49.734375 C 44.398438 46.632812 48.066406 44.207031 51.417969 42.269531 C 54.78125 40.339844 57.824219 38.871094 60.378906 37.785156 C 62.921875 36.6875 64.976562 35.96875 66.378906 35.480469 C 67.789062 35.015625 68.539062 34.765625 68.539062 34.765625 C 68.539062 34.765625 67.808594 35.058594 66.429688 35.609375 C 65.054688 36.167969 63.066406 37.039062 60.578125 38.230469 C 58.09375 39.417969 55.136719 41.011719 51.902344 43.070312 C 48.679688 45.128906 45.179688 47.679688 41.683594 50.820312 C 38.191406 53.953125 34.703125 57.675781 31.5625 62.019531 C 28.375 66.335938 25.644531 71.316406 23.351562 76.6875 C 21.144531 82.089844 19.441406 87.917969 18.386719 93.964844 C 18.125 95.480469 17.863281 97.003906 17.6875 98.539062 C 17.46875 100.066406 17.332031 101.621094 17.203125 103.167969 C 17.03125 104.714844 17.015625 106.261719 16.914062 107.816406 C 16.847656 109.367188 16.859375 110.964844 16.820312 112.542969 C 16.808594 118.753906 17.320312 125.035156 18.40625 131.070312 C 19.480469 137.113281 21.195312 142.9375 23.429688 148.332031 C 25.722656 153.699219 28.476562 158.671875 31.652344 162.996094 C 34.789062 167.34375 38.273438 171.074219 41.746094 174.226562 C 45.226562 177.382812 48.714844 179.953125 51.929688 182.03125 C 55.148438 184.101562 58.09375 185.707031 60.578125 186.902344 C 63.066406 188.109375 65.050781 188.980469 66.421875 189.542969 C 67.800781 190.089844 68.53125 190.386719 68.53125 190.386719"/><path fill="#51C7F4" d="M 70.148438 190.386719 C 70.148438 190.386719 70.011719 190.292969 69.753906 190.105469 C 69.503906 189.917969 69.105469 189.667969 68.632812 189.28125 C 67.664062 188.519531 66.304688 187.328125 64.800781 185.585938 C 61.78125 182.128906 58.21875 176.496094 55.285156 169.179688 C 52.320312 161.871094 49.851562 152.96875 48.21875 143.261719 C 47.398438 138.410156 46.738281 133.363281 46.34375 128.210938 C 45.941406 123.0625 45.726562 117.828125 45.703125 112.5625 C 45.722656 107.359375 45.933594 102.070312 46.34375 96.941406 C 46.738281 91.785156 47.394531 86.738281 48.21875 81.882812 C 49.84375 72.183594 52.316406 63.277344 55.285156 55.972656 C 58.21875 48.648438 61.78125 43.019531 64.800781 39.558594 C 66.304688 37.820312 67.671875 36.628906 68.632812 35.871094 C 69.105469 35.484375 69.503906 35.234375 69.753906 35.042969 C 70.015625 34.863281 70.148438 34.765625 70.148438 34.765625 C 70.148438 34.765625 70.023438 34.871094 69.78125 35.070312 C 69.542969 35.28125 69.160156 35.554688 68.71875 35.976562 C 67.808594 36.789062 66.574219 38.089844 65.175781 39.871094 C 63.785156 41.65625 62.28125 43.976562 60.828125 46.769531 C 59.371094 49.570312 57.949219 52.835938 56.628906 56.484375 C 55.316406 60.140625 54.125 64.175781 53.066406 68.5 C 52.003906 72.824219 51.136719 77.441406 50.394531 82.242188 C 49.644531 87.039062 49.144531 92.035156 48.757812 97.121094 C 48.386719 102.222656 48.203125 107.359375 48.210938 112.585938 C 48.199219 117.746094 48.386719 122.945312 48.753906 128.03125 C 49.140625 133.113281 49.644531 138.113281 50.394531 142.910156 C 51.136719 147.707031 51.996094 152.332031 53.058594 156.65625 C 54.125 160.972656 55.316406 165.011719 56.621094 168.667969 C 57.945312 172.316406 59.367188 175.585938 60.820312 178.378906 C 62.28125 181.175781 63.785156 183.496094 65.175781 185.28125 C 66.574219 187.066406 67.808594 188.363281 68.710938 189.175781 C 69.15625 189.59375 69.535156 189.875 69.78125 190.078125 C 70.023438 190.277344 70.148438 190.386719 70.148438 190.386719"/><g fill="#FFF"><g><g><path d="M 0.300781 -6.527344 C 1.773438 -1.125 8.644531 0.433594 13.136719 0.433594 C 18.539062 0.433594 26.101562 -1.46875 26.101562 -8.339844 C 26.101562 -15.210938 19.621094 -15.472656 13.613281 -16.035156 C 9.378906 -16.335938 5.746094 -16.679688 5.746094 -19.492188 C 5.746094 -22.515625 10.414062 -23.335938 12.75 -23.335938 C 15.386719 -23.335938 19.273438 -22.992188 20.3125 -20.3125 C 20.65625 -19.535156 21.566406 -19.101562 22.515625 -19.101562 C 23.984375 -19.101562 25.453125 -20.3125 24.980469 -21.910156 C 22.949219 -26.664062 17.199219 -27.960938 12.707031 -27.960938 C 7.304688 -27.960938 0.5625 -25.453125 0.5625 -19.535156 C 0.5625 -12.964844 7.261719 -12.144531 13.136719 -11.667969 C 16.984375 -11.367188 20.917969 -11.019531 20.917969 -8.296875 C 20.917969 -4.882812 16.164062 -4.105469 13.136719 -4.105469 C 10.242188 -4.105469 6.265625 -4.753906 5.316406 -7.5625 C 5.097656 -8.6875 4.0625 -9.25 2.9375 -9.25 C 1.425781 -9.25 -0.128906 -8.210938 0.300781 -6.527344 Z M 0.300781 -6.527344" transform="translate(76.44 108.636)"/></g></g></g><g fill="#FFF"><g><g><path d="M 13.613281 -8.082031 L 5.617188 -25.585938 C 5.011719 -26.925781 4.105469 -27.527344 2.980469 -27.527344 C 1.382812 -27.527344 -0.128906 -25.886719 0.777344 -23.898438 L 11.105469 -1.425781 C 11.496094 -0.433594 12.359375 0 13.355469 0 C 14.390625 0 15.429688 -0.519531 15.816406 -1.339844 L 23.769531 -17.199219 L 31.808594 -1.339844 C 32.28125 -0.347656 33.0625 0 34.054688 0 C 35.046875 0 36 -0.476562 36.433594 -1.425781 L 46.933594 -24.070312 C 47.882812 -26.144531 46.113281 -27.527344 44.601562 -27.527344 C 43.476562 -27.527344 42.570312 -26.835938 42.09375 -25.800781 L 34.011719 -8.082031 L 26.144531 -23.769531 C 25.671875 -24.632812 24.675781 -25.109375 23.726562 -25.109375 C 22.730469 -25.109375 21.867188 -24.632812 21.480469 -23.683594 Z M 13.613281 -8.082031" transform="translate(104.35 108.636)"/></g></g></g><g fill="#FFF"><g><g><path d="M 1.945312 -25.195312 L 1.945312 -2.203125 C 1.945312 -0.691406 3.15625 0 4.453125 0 C 5.703125 0 7 -0.734375 7 -2.203125 L 7 -25.195312 C 7 -26.792969 5.703125 -27.527344 4.453125 -27.527344 C 3.15625 -27.527344 1.945312 -26.792969 1.945312 -25.195312 Z M 1.945312 -25.195312" transform="translate(154.898 108.636)"/></g></g></g><g fill="#FFF"><g><g><path d="M 7.476562 -7.648438 L 13.699219 -7.648438 C 20.960938 -7.648438 25.195312 -11.539062 25.195312 -17.375 C 25.195312 -23.464844 21.003906 -27.527344 13.828125 -27.527344 L 5.011719 -27.527344 C 3.628906 -27.527344 2.507812 -26.621094 2.507812 -25.28125 L 2.507812 -2.160156 C 2.507812 -0.734375 3.714844 0 4.96875 0 C 6.179688 0 7.476562 -0.691406 7.476562 -2.203125 Z M 7.476562 -23.25 L 13.871094 -23.25 C 17.976562 -23.25 20.269531 -20.917969 20.269531 -17.375 C 20.269531 -14.089844 17.933594 -11.929688 13.699219 -11.929688 L 7.476562 -11.929688 Z M 7.476562 -23.25" transform="translate(164.402 108.636)"/></g></g></g><g fill="#FFF"><g><g><path d="M 22.515625 -4.320312 L 7.433594 -4.320312 L 7.433594 -11.496094 L 21.738281 -11.496094 C 23.25 -11.496094 23.984375 -12.53125 23.984375 -13.570312 C 23.984375 -14.652344 23.207031 -15.730469 21.738281 -15.730469 L 7.433594 -15.730469 L 7.433594 -23.292969 L 22.515625 -23.292969 C 23.984375 -23.292969 24.804688 -24.417969 24.804688 -25.453125 C 24.804688 -26.535156 24.070312 -27.527344 22.515625 -27.527344 L 5.359375 -27.527344 C 3.628906 -27.527344 2.507812 -26.363281 2.507812 -24.980469 L 2.507812 -2.59375 C 2.507812 -1.167969 3.628906 0 5.359375 0 L 22.515625 0 C 24.113281 0 24.894531 -1.039062 24.894531 -2.074219 C 24.894531 -3.15625 24.027344 -4.320312 22.515625 -4.320312 Z M 22.515625 -4.320312" transform="translate(192.053 108.636)"/></g></g></g><g fill="#FFF"><g><g><path d="M 13.613281 -8.082031 L 5.617188 -25.585938 C 5.011719 -26.925781 4.105469 -27.527344 2.980469 -27.527344 C 1.382812 -27.527344 -0.128906 -25.886719 0.777344 -23.898438 L 11.105469 -1.425781 C 11.496094 -0.433594 12.359375 0 13.355469 0 C 14.390625 0 15.429688 -0.519531 15.816406 -1.339844 L 23.769531 -17.199219 L 31.808594 -1.339844 C 32.28125 -0.347656 33.0625 0 34.054688 0 C 35.046875 0 36 -0.476562 36.433594 -1.425781 L 46.933594 -24.070312 C 47.882812 -26.144531 46.113281 -27.527344 44.601562 -27.527344 C 43.476562 -27.527344 42.570312 -26.835938 42.09375 -25.800781 L 34.011719 -8.082031 L 26.144531 -23.769531 C 25.671875 -24.632812 24.675781 -25.109375 23.726562 -25.109375 C 22.730469 -25.109375 21.867188 -24.632812 21.480469 -23.683594 Z M 13.613281 -8.082031" transform="translate(76.44 151.597)"/></g></g></g><g fill="#FFF"><g><g><path d="M 22.515625 -4.320312 L 7.433594 -4.320312 L 7.433594 -11.496094 L 21.738281 -11.496094 C 23.25 -11.496094 23.984375 -12.53125 23.984375 -13.570312 C 23.984375 -14.652344 23.207031 -15.730469 21.738281 -15.730469 L 7.433594 -15.730469 L 7.433594 -23.292969 L 22.515625 -23.292969 C 23.984375 -23.292969 24.804688 -24.417969 24.804688 -25.453125 C 24.804688 -26.535156 24.070312 -27.527344 22.515625 -27.527344 L 5.359375 -27.527344 C 3.628906 -27.527344 2.507812 -26.363281 2.507812 -24.980469 L 2.507812 -2.59375 C 2.507812 -1.167969 3.628906 0 5.359375 0 L 22.515625 0 C 24.113281 0 24.894531 -1.039062 24.894531 -2.074219 C 24.894531 -3.15625 24.027344 -4.320312 22.515625 -4.320312 Z M 22.515625 -4.320312" transform="translate(126.988 151.597)"/></g></g></g><g fill="#FFF"><g><g><path d="M 14.738281 -27.527344 L 5.097656 -27.527344 C 3.714844 -27.527344 2.550781 -26.535156 2.550781 -25.238281 L 2.550781 -2.289062 C 2.550781 -1.039062 3.714844 0 5.097656 0 L 15.644531 0 C 21.261719 0 27.269531 -1.640625 27.269531 -8.339844 C 27.269531 -11.410156 25.800781 -13.742188 22.820312 -14.953125 C 24.417969 -15.859375 25.367188 -18.109375 25.367188 -19.964844 C 25.367188 -26.449219 18.929688 -27.527344 14.738281 -27.527344 Z M 14.738281 -23.25 C 16.898438 -23.25 20.398438 -22.773438 20.398438 -19.964844 C 20.398438 -17.546875 17.804688 -16.550781 14.867188 -16.550781 L 7.5625 -16.550781 L 7.5625 -23.25 Z M 16.898438 -12.273438 C 19.835938 -12.273438 22.171875 -10.976562 22.171875 -8.339844 C 22.171875 -4.925781 18.757812 -4.277344 15.644531 -4.277344 L 7.5625 -4.277344 L 7.5625 -12.273438 Z M 16.898438 -12.273438" transform="translate(154.595 151.597)"/></g></g></g></svg>